<svg width="152" height="35" viewBox="0 0 152 35" fill="none" xmlns="http://www.w3.org/2000/svg">
<path d="M4.688 22.448H12.048V26H0.208V3.664H4.688V22.448ZM22.7675 26.288C21.0608 26.288 19.5248 25.9147 18.1595 25.168C16.7942 24.4 15.7168 23.3227 14.9275 21.936C14.1595 20.5493 13.7755 18.9493 13.7755 17.136C13.7755 15.3227 14.1702 13.7227 14.9595 12.336C15.7702 10.9493 16.8688 9.88267 18.2555 9.136C19.6422 8.368 21.1888 7.984 22.8955 7.984C24.6022 7.984 26.1488 8.368 27.5355 9.136C28.9222 9.88267 30.0102 10.9493 30.7995 12.336C31.6102 13.7227 32.0155 15.3227 32.0155 17.136C32.0155 18.9493 31.5995 20.5493 30.7675 21.936C29.9568 23.3227 28.8475 24.4 27.4395 25.168C26.0528 25.9147 24.4955 26.288 22.7675 26.288ZM22.7675 22.384C23.5782 22.384 24.3355 22.192 25.0395 21.808C25.7648 21.4027 26.3408 20.8053 26.7675 20.016C27.1942 19.2267 27.4075 18.2667 27.4075 17.136C27.4075 15.4507 26.9595 14.16 26.0635 13.264C25.1888 12.3467 24.1115 11.888 22.8315 11.888C21.5515 11.888 20.4742 12.3467 19.5995 13.264C18.7462 14.16 18.3195 15.4507 18.3195 17.136C18.3195 18.8213 18.7355 20.1227 19.5675 21.04C20.4208 21.936 21.4875 22.384 22.7675 22.384ZM34.1497 17.072C34.1497 15.28 34.5017 13.6907 35.2057 12.304C35.9311 10.9173 36.9018 9.85067 38.1178 9.104C39.3551 8.35733 40.7311 7.984 42.2458 7.984C43.5684 7.984 44.7204 8.25067 45.7018 8.784C46.7044 9.31733 47.5044 9.98933 48.1018 10.8V8.272H52.6138V26H48.1018V23.408C47.5258 24.24 46.7258 24.9333 45.7018 25.488C44.6991 26.0213 43.5364 26.288 42.2138 26.288C40.7204 26.288 39.3551 25.904 38.1178 25.136C36.9018 24.368 35.9311 23.2907 35.2057 21.904C34.5017 20.496 34.1497 18.8853 34.1497 17.072ZM48.1018 17.136C48.1018 16.048 47.8884 15.12 47.4618 14.352C47.0351 13.5627 46.4591 12.9653 45.7338 12.56C45.0084 12.1333 44.2298 11.92 43.3978 11.92C42.5658 11.92 41.7978 12.1227 41.0938 12.528C40.3898 12.9333 39.8138 13.5307 39.3658 14.32C38.9391 15.088 38.7258 16.0053 38.7258 17.072C38.7258 18.1387 38.9391 19.0773 39.3658 19.888C39.8138 20.6773 40.3898 21.2853 41.0938 21.712C41.8191 22.1387 42.5871 22.352 43.3978 22.352C44.2298 22.352 45.0084 22.1493 45.7338 21.744C46.4591 21.3173 47.0351 20.72 47.4618 19.952C47.8884 19.1627 48.1018 18.224 48.1018 17.136ZM55.8372 17.072C55.8372 15.28 56.1892 13.6907 56.8932 12.304C57.6186 10.9173 58.5999 9.85067 59.8373 9.104C61.0746 8.35733 62.4506 7.984 63.9653 7.984C65.1173 7.984 66.2159 8.24 67.2613 8.752C68.3066 9.24267 69.1386 9.904 69.7573 10.736V2.32H74.3013V26H69.7573V23.376C69.2026 24.2507 68.4239 24.9547 67.4213 25.488C66.4186 26.0213 65.2559 26.288 63.9333 26.288C62.4399 26.288 61.0746 25.904 59.8373 25.136C58.5999 24.368 57.6186 23.2907 56.8932 21.904C56.1892 20.496 55.8372 18.8853 55.8372 17.072ZM69.7893 17.136C69.7893 16.048 69.5759 15.12 69.1493 14.352C68.7226 13.5627 68.1466 12.9653 67.4213 12.56C66.6959 12.1333 65.9173 11.92 65.0853 11.92C64.2533 11.92 63.4853 12.1227 62.7812 12.528C62.0773 12.9333 61.5013 13.5307 61.0533 14.32C60.6266 15.088 60.4133 16.0053 60.4133 17.072C60.4133 18.1387 60.6266 19.0773 61.0533 19.888C61.5013 20.6773 62.0773 21.2853 62.7812 21.712C63.5066 22.1387 64.2746 22.352 65.0853 22.352C65.9173 22.352 66.6959 22.1493 67.4213 21.744C68.1466 21.3173 68.7226 20.72 69.1493 19.952C69.5759 19.1627 69.7893 18.224 69.7893 17.136ZM80.9488 6.16C80.1594 6.16 79.4981 5.91467 78.9648 5.424C78.4528 4.912 78.1968 4.28267 78.1968 3.536C78.1968 2.78933 78.4528 2.17067 78.9648 1.68C79.4981 1.168 80.1594 0.911999 80.9488 0.911999C81.7381 0.911999 82.3888 1.168 82.9008 1.68C83.4341 2.17067 83.7008 2.78933 83.7008 3.536C83.7008 4.28267 83.4341 4.912 82.9008 5.424C82.3888 5.91467 81.7381 6.16 80.9488 6.16ZM83.1568 8.272V26H78.6768V8.272H83.1568ZM97.407 8.016C99.519 8.016 101.226 8.688 102.527 10.032C103.828 11.3547 104.479 13.2107 104.479 15.6V26H99.999V16.208C99.999 14.8 99.647 13.7227 98.943 12.976C98.239 12.208 97.279 11.824 96.063 11.824C94.8257 11.824 93.8443 12.208 93.119 12.976C92.415 13.7227 92.063 14.8 92.063 16.208V26H87.583V8.272H92.063V10.48C92.6603 9.712 93.4177 9.11467 94.335 8.688C95.2737 8.24 96.2977 8.016 97.407 8.016ZM115.683 7.984C117.006 7.984 118.169 8.25067 119.171 8.784C120.174 9.296 120.963 9.968 121.539 10.8V8.272H126.051V26.128C126.051 27.7707 125.721 29.232 125.059 30.512C124.398 31.8133 123.406 32.8373 122.083 33.584C120.761 34.352 119.161 34.736 117.283 34.736C114.766 34.736 112.697 34.1493 111.075 32.976C109.475 31.8027 108.569 30.2027 108.355 28.176H112.803C113.038 28.9867 113.539 29.6267 114.307 30.096C115.097 30.5867 116.046 30.832 117.155 30.832C118.457 30.832 119.513 30.4373 120.323 29.648C121.134 28.88 121.539 27.7067 121.539 26.128V23.376C120.963 24.208 120.163 24.9013 119.139 25.456C118.137 26.0107 116.985 26.288 115.683 26.288C114.19 26.288 112.825 25.904 111.587 25.136C110.35 24.368 109.369 23.2907 108.643 21.904C107.939 20.496 107.587 18.8853 107.587 17.072C107.587 15.28 107.939 13.6907 108.643 12.304C109.369 10.9173 110.339 9.85067 111.555 9.104C112.793 8.35733 114.169 7.984 115.683 7.984ZM121.539 17.136C121.539 16.048 121.326 15.12 120.899 14.352C120.473 13.5627 119.897 12.9653 119.171 12.56C118.446 12.1333 117.667 11.92 116.835 11.92C116.003 11.92 115.235 12.1227 114.531 12.528C113.827 12.9333 113.251 13.5307 112.803 14.32C112.377 15.088 112.163 16.0053 112.163 17.072C112.163 18.1387 112.377 19.0773 112.803 19.888C113.251 20.6773 113.827 21.2853 114.531 21.712C115.257 22.1387 116.025 22.352 116.835 22.352C117.667 22.352 118.446 22.1493 119.171 21.744C119.897 21.3173 120.473 20.72 120.899 19.952C121.326 19.1627 121.539 18.224 121.539 17.136ZM132.411 26.224C131.6 26.224 130.928 25.9787 130.395 25.488C129.883 24.976 129.627 24.3467 129.627 23.6C129.627 22.8533 129.883 22.2347 130.395 21.744C130.928 21.232 131.6 20.976 132.411 20.976C133.2 20.976 133.851 21.232 134.363 21.744C134.875 22.2347 135.131 22.8533 135.131 23.6C135.131 24.3467 134.875 24.976 134.363 25.488C133.851 25.9787 133.2 26.224 132.411 26.224ZM140.723 26.224C139.913 26.224 139.241 25.9787 138.707 25.488C138.195 24.976 137.939 24.3467 137.939 23.6C137.939 22.8533 138.195 22.2347 138.707 21.744C139.241 21.232 139.913 20.976 140.723 20.976C141.513 20.976 142.163 21.232 142.675 21.744C143.187 22.2347 143.443 22.8533 143.443 23.6C143.443 24.3467 143.187 24.976 142.675 25.488C142.163 25.9787 141.513 26.224 140.723 26.224ZM149.036 26.224C148.225 26.224 147.553 25.9787 147.02 25.488C146.508 24.976 146.252 24.3467 146.252 23.6C146.252 22.8533 146.508 22.2347 147.02 21.744C147.553 21.232 148.225 20.976 149.036 20.976C149.825 20.976 150.476 21.232 150.988 21.744C151.5 22.2347 151.756 22.8533 151.756 23.6C151.756 24.3467 151.5 24.976 150.988 25.488C150.476 25.9787 149.825 26.224 149.036 26.224Z" fill="black"/>
</svg>
