<svg width="187" height="25" viewBox="0 0 187 25" fill="none" xmlns="http://www.w3.org/2000/svg">
<path d="M19.312 24H14.832L4.688 8.672V24H0.208V1.632H4.688L14.832 16.992V1.632H19.312V24ZM31.6113 24.288C29.9046 24.288 28.3686 23.9147 27.0033 23.168C25.6379 22.4 24.5606 21.3227 23.7713 19.936C23.0033 18.5493 22.6193 16.9493 22.6193 15.136C22.6193 13.3227 23.0139 11.7227 23.8033 10.336C24.6139 8.94933 25.7126 7.88267 27.0993 7.136C28.4859 6.368 30.0326 5.984 31.7393 5.984C33.4459 5.984 34.9926 6.368 36.3793 7.136C37.7659 7.88267 38.8539 8.94933 39.6433 10.336C40.4539 11.7227 40.8593 13.3227 40.8593 15.136C40.8593 16.9493 40.4433 18.5493 39.6112 19.936C38.8006 21.3227 37.6913 22.4 36.2833 23.168C34.8966 23.9147 33.3393 24.288 31.6113 24.288ZM31.6113 20.384C32.4219 20.384 33.1793 20.192 33.8833 19.808C34.6086 19.4027 35.1846 18.8053 35.6113 18.016C36.0379 17.2267 36.2513 16.2667 36.2513 15.136C36.2513 13.4507 35.8033 12.16 34.9073 11.264C34.0326 10.3467 32.9553 9.888 31.6753 9.888C30.3953 9.888 29.3179 10.3467 28.4433 11.264C27.5899 12.16 27.1633 13.4507 27.1633 15.136C27.1633 16.8213 27.5793 18.1227 28.4113 19.04C29.2646 19.936 30.3313 20.384 31.6113 20.384ZM49.3615 9.952V18.528C49.3615 19.1253 49.5002 19.5627 49.7775 19.84C50.0762 20.096 50.5668 20.224 51.2495 20.224H53.3295V24H50.5135C46.7375 24 44.8495 22.1653 44.8495 18.496V9.952H42.7375V6.272H44.8495V1.888H49.3615V6.272H53.3295V9.952H49.3615ZM77.9688 1.664V5.28H68.6568V11.008H75.7928V14.56H68.6568V24H64.1768V1.664H77.9688ZM89.0175 24.288C87.3108 24.288 85.7748 23.9147 84.4095 23.168C83.0442 22.4 81.9668 21.3227 81.1775 19.936C80.4095 18.5493 80.0255 16.9493 80.0255 15.136C80.0255 13.3227 80.4202 11.7227 81.2095 10.336C82.0202 8.94933 83.1188 7.88267 84.5055 7.136C85.8922 6.368 87.4388 5.984 89.1455 5.984C90.8522 5.984 92.3988 6.368 93.7855 7.136C95.1722 7.88267 96.2602 8.94933 97.0495 10.336C97.8602 11.7227 98.2655 13.3227 98.2655 15.136C98.2655 16.9493 97.8495 18.5493 97.0175 19.936C96.2068 21.3227 95.0975 22.4 93.6895 23.168C92.3028 23.9147 90.7455 24.288 89.0175 24.288ZM89.0175 20.384C89.8282 20.384 90.5855 20.192 91.2895 19.808C92.0148 19.4027 92.5908 18.8053 93.0175 18.016C93.4442 17.2267 93.6575 16.2667 93.6575 15.136C93.6575 13.4507 93.2095 12.16 92.3135 11.264C91.4388 10.3467 90.3615 9.888 89.0815 9.888C87.8015 9.888 86.7242 10.3467 85.8495 11.264C84.9962 12.16 84.5695 13.4507 84.5695 15.136C84.5695 16.8213 84.9855 18.1227 85.8175 19.04C86.6708 19.936 87.7375 20.384 89.0175 20.384ZM118.288 6.272V24H113.776V21.76C113.2 22.528 112.442 23.136 111.504 23.584C110.586 24.0107 109.584 24.224 108.496 24.224C107.109 24.224 105.882 23.936 104.816 23.36C103.749 22.7627 102.906 21.8987 102.288 20.768C101.69 19.616 101.392 18.2507 101.392 16.672V6.272H105.872V16.032C105.872 17.44 106.224 18.528 106.928 19.296C107.632 20.0427 108.592 20.416 109.808 20.416C111.045 20.416 112.016 20.0427 112.72 19.296C113.424 18.528 113.776 17.44 113.776 16.032V6.272H118.288ZM132.532 6.016C134.644 6.016 136.351 6.688 137.652 8.032C138.953 9.35467 139.604 11.2107 139.604 13.6V24H135.124V14.208C135.124 12.8 134.772 11.7227 134.068 10.976C133.364 10.208 132.404 9.824 131.188 9.824C129.951 9.824 128.969 10.208 128.244 10.976C127.54 11.7227 127.188 12.8 127.188 14.208V24H122.708V6.272H127.188V8.48C127.785 7.712 128.543 7.11467 129.46 6.688C130.399 6.24 131.423 6.016 132.532 6.016ZM142.712 15.072C142.712 13.28 143.064 11.6907 143.768 10.304C144.494 8.91733 145.475 7.85067 146.712 7.104C147.95 6.35733 149.326 5.984 150.84 5.984C151.992 5.984 153.091 6.24 154.136 6.752C155.182 7.24267 156.014 7.904 156.632 8.736V0.32H161.176V24H156.632V21.376C156.078 22.2507 155.299 22.9547 154.296 23.488C153.294 24.0213 152.131 24.288 150.808 24.288C149.315 24.288 147.95 23.904 146.712 23.136C145.475 22.368 144.494 21.2907 143.768 19.904C143.064 18.496 142.712 16.8853 142.712 15.072ZM156.664 15.136C156.664 14.048 156.451 13.12 156.024 12.352C155.598 11.5627 155.022 10.9653 154.296 10.56C153.571 10.1333 152.792 9.92 151.96 9.92C151.128 9.92 150.36 10.1227 149.656 10.528C148.952 10.9333 148.376 11.5307 147.928 12.32C147.502 13.088 147.288 14.0053 147.288 15.072C147.288 16.1387 147.502 17.0773 147.928 17.888C148.376 18.6773 148.952 19.2853 149.656 19.712C150.382 20.1387 151.15 20.352 151.96 20.352C152.792 20.352 153.571 20.1493 154.296 19.744C155.022 19.3173 155.598 18.72 156.024 17.952C156.451 17.1627 156.664 16.224 156.664 15.136ZM167.536 24.224C166.725 24.224 166.053 23.9787 165.52 23.488C165.008 22.976 164.752 22.3467 164.752 21.6C164.752 20.8533 165.008 20.2347 165.52 19.744C166.053 19.232 166.725 18.976 167.536 18.976C168.325 18.976 168.976 19.232 169.488 19.744C170 20.2347 170.256 20.8533 170.256 21.6C170.256 22.3467 170 22.976 169.488 23.488C168.976 23.9787 168.325 24.224 167.536 24.224ZM175.848 24.224C175.038 24.224 174.366 23.9787 173.832 23.488C173.32 22.976 173.064 22.3467 173.064 21.6C173.064 20.8533 173.32 20.2347 173.832 19.744C174.366 19.232 175.038 18.976 175.848 18.976C176.638 18.976 177.288 19.232 177.8 19.744C178.312 20.2347 178.568 20.8533 178.568 21.6C178.568 22.3467 178.312 22.976 177.8 23.488C177.288 23.9787 176.638 24.224 175.848 24.224ZM184.161 24.224C183.35 24.224 182.678 23.9787 182.145 23.488C181.633 22.976 181.377 22.3467 181.377 21.6C181.377 20.8533 181.633 20.2347 182.145 19.744C182.678 19.232 183.35 18.976 184.161 18.976C184.95 18.976 185.601 19.232 186.113 19.744C186.625 20.2347 186.881 20.8533 186.881 21.6C186.881 22.3467 186.625 22.976 186.113 23.488C185.601 23.9787 184.95 24.224 184.161 24.224Z" fill="black"/>
</svg>
